<svg width="1253" height="332" viewBox="0 0 1253 332" fill="none" xmlns="http://www.w3.org/2000/svg">
<path d="M861.4 232H862.4C865.6 232 867.2 230.533 867.2 227.6C867.2 226.533 867 225.4 866.6 224.2L848.6 175.6H813.6L796.2 223.4C795.8 224.467 795.6 225.467 795.6 226.4C795.6 228.133 796.067 229.533 797 230.6C797.933 231.533 798.933 232 800 232H801V234H778.8V232H779.8C781.533 232 783.2 231 784.8 229C786.533 226.867 787.933 224.4 789 221.6L834.8 99.6L879.6 220.4C880.533 223.067 881.8 225.667 883.4 228.2C885.133 230.733 887.333 232 890 232H891V234H861.4V232ZM815.6 168.8H846.4L831 127L815.6 168.8ZM943.769 232H944.769C945.702 232 946.569 231.6 947.369 230.8C948.169 230 948.835 229.067 949.369 228C950.035 226.933 950.502 225.8 950.769 224.6C951.035 223.267 951.169 222.067 951.169 221V114.4C951.169 113.467 951.035 112.4 950.769 111.2C950.502 110 950.102 108.867 949.569 107.8C949.035 106.733 948.369 105.867 947.569 105.2C946.769 104.4 945.835 104 944.769 104H943.769V102H982.369C992.902 102 1002.37 103.867 1010.77 107.6C1019.17 111.2 1026.24 116.133 1031.97 122.4C1037.84 128.533 1042.3 135.6 1045.37 143.6C1048.44 151.6 1049.97 159.933 1049.97 168.6C1049.97 176.733 1048.5 184.733 1045.57 192.6C1042.64 200.333 1038.24 207.267 1032.37 213.4C1026.5 219.533 1019.17 224.533 1010.37 228.4C1001.57 232.133 991.369 234 979.769 234H943.769V232ZM1036.37 171.6C1036.37 163.067 1034.84 155 1031.77 147.4C1028.7 139.8 1024.37 133.2 1018.77 127.6C1013.3 121.867 1006.77 117.333 999.169 114C991.702 110.667 983.569 109 974.769 109H964.569V227H975.169C982.369 227 989.569 225.933 996.769 223.8C1004.1 221.533 1010.7 218.133 1016.57 213.6C1022.44 208.933 1027.17 203.133 1030.77 196.2C1034.5 189.267 1036.37 181.067 1036.37 171.6ZM1170.53 100C1180.93 100 1190.27 101.867 1198.53 105.6C1206.8 109.2 1213.8 114.133 1219.53 120.4C1225.4 126.533 1229.87 133.733 1232.93 142C1236.13 150.133 1237.73 158.667 1237.73 167.6C1237.73 177.6 1235.87 186.8 1232.13 195.2C1228.53 203.6 1223.53 210.8 1217.13 216.8C1210.73 222.8 1203.27 227.533 1194.73 231C1186.33 234.333 1177.33 236 1167.73 236C1157.47 236 1148.2 234.133 1139.93 230.4C1131.8 226.667 1124.87 221.733 1119.13 215.6C1113.53 209.467 1109.2 202.4 1106.13 194.4C1103.07 186.4 1101.53 178.067 1101.53 169.4C1101.53 160.867 1103.07 152.467 1106.13 144.2C1109.2 135.8 1113.67 128.333 1119.53 121.8C1125.53 115.267 1132.8 110 1141.33 106C1149.87 102 1159.6 100 1170.53 100ZM1170.33 229C1179.27 228.6 1187.07 226.6 1193.73 223C1200.53 219.267 1206.2 214.6 1210.73 209C1215.27 203.267 1218.6 197 1220.73 190.2C1223 183.4 1224.13 176.667 1224.13 170C1224.13 162.667 1222.8 155.267 1220.13 147.8C1217.47 140.333 1213.67 133.6 1208.73 127.6C1203.8 121.467 1197.87 116.533 1190.93 112.8C1184.13 108.933 1176.47 107 1167.93 107C1159.67 107 1152.27 108.867 1145.73 112.6C1139.2 116.2 1133.6 120.867 1128.93 126.6C1124.4 132.333 1120.93 138.733 1118.53 145.8C1116.13 152.867 1114.93 159.8 1114.93 166.6C1114.93 173.933 1116.33 181.333 1119.13 188.8C1121.93 196.133 1125.8 202.8 1130.73 208.8C1135.67 214.8 1141.47 219.667 1148.13 223.4C1154.93 227.133 1162.33 229 1170.33 229Z" fill="#E5673B" fill-opacity="0.2"/>
<path d="M85.4 234H86.4C89.6 234 91.2 232.533 91.2 229.6C91.2 228.533 91 227.4 90.6 226.2L72.6 177.6H37.6L20.2 225.4C19.8 226.467 19.6 227.467 19.6 228.4C19.6 230.133 20.0667 231.533 21 232.6C21.9333 233.533 22.9333 234 24 234H25V236H2.8V234H3.8C5.53333 234 7.2 233 8.8 231C10.5333 228.867 11.9333 226.4 13 223.6L58.8 101.6L103.6 222.4C104.533 225.067 105.8 227.667 107.4 230.2C109.133 232.733 111.333 234 114 234H115V236H85.4V234ZM39.6 170.8H70.4L55 129L39.6 170.8ZM150.58 111C150.58 111.8 150.78 112.8 151.18 114L186.38 208.8L221.58 113C221.713 112.733 221.846 112.333 221.98 111.8C222.113 111.267 222.18 110.867 222.18 110.6C222.18 109 221.513 107.867 220.18 107.2C218.98 106.4 217.846 106 216.78 106V104H238.58V106C236.58 106 234.713 106.533 232.98 107.6C231.38 108.667 230.113 110.467 229.18 113L183.38 238.4L136.58 113.6C135.78 111.6 134.58 109.867 132.98 108.4C131.513 106.933 129.646 106.133 127.38 106V104H155.78V106C154.58 106 153.38 106.467 152.18 107.4C151.113 108.2 150.58 109.4 150.58 111ZM339.259 102C349.659 102 358.993 103.867 367.259 107.6C375.526 111.2 382.526 116.133 388.259 122.4C394.126 128.533 398.593 135.733 401.659 144C404.859 152.133 406.459 160.667 406.459 169.6C406.459 179.6 404.593 188.8 400.859 197.2C397.259 205.6 392.259 212.8 385.859 218.8C379.459 224.8 371.993 229.533 363.459 233C355.059 236.333 346.059 238 336.459 238C326.193 238 316.926 236.133 308.659 232.4C300.526 228.667 293.593 223.733 287.859 217.6C282.259 211.467 277.926 204.4 274.859 196.4C271.793 188.4 270.259 180.067 270.259 171.4C270.259 162.867 271.793 154.467 274.859 146.2C277.926 137.8 282.393 130.333 288.259 123.8C294.259 117.267 301.526 112 310.059 108C318.593 104 328.326 102 339.259 102ZM339.059 231C347.993 230.6 355.793 228.6 362.459 225C369.259 221.267 374.926 216.6 379.459 211C383.993 205.267 387.326 199 389.459 192.2C391.726 185.4 392.859 178.667 392.859 172C392.859 164.667 391.526 157.267 388.859 149.8C386.193 142.333 382.393 135.6 377.459 129.6C372.526 123.467 366.593 118.533 359.659 114.8C352.859 110.933 345.193 109 336.659 109C328.393 109 320.993 110.867 314.459 114.6C307.926 118.2 302.326 122.867 297.659 128.6C293.126 134.333 289.659 140.733 287.259 147.8C284.859 154.867 283.659 161.8 283.659 168.6C283.659 175.933 285.059 183.333 287.859 190.8C290.659 198.133 294.526 204.8 299.459 210.8C304.393 216.8 310.193 221.667 316.859 225.4C323.659 229.133 331.059 231 339.059 231Z" fill="#E5673B" fill-opacity="0.2"/>
<path d="M739.905 166.053L743.244 166.506L739.534 193.853L736.195 193.4L739.905 166.053Z" fill="#454545"/>
<path d="M715.483 230.528L720.696 231.631L724.468 224.794L720.754 220.973L723.117 216.689L738.295 233.694L735.614 238.555L713.12 234.812L715.483 230.528ZM724.555 232.521C729.293 233.495 731.972 234.047 732.591 234.177C733.206 234.316 733.687 234.436 734.032 234.537C733.093 233.651 730.833 231.35 727.25 227.634L724.555 232.521Z" fill="#454545"/>
<path d="M715.636 267.356L712.625 270.814L701.253 251.261L704.505 247.527L725.428 256.109L722.417 259.567L710.16 254.237C709.445 253.913 708.632 253.509 707.719 253.025C706.808 252.555 706.185 252.214 705.852 252.002C706.459 252.673 707.405 253.981 708.688 255.928L715.636 267.356Z" fill="#454545"/>
<path d="M680.026 284.97C677.92 282.119 677.008 279.405 677.291 276.829C677.573 274.253 679.034 271.99 681.674 270.04C684.313 268.091 686.905 267.36 689.45 267.847C691.996 268.334 694.327 270.012 696.445 272.879C698.563 275.746 699.472 278.456 699.172 281.008C698.87 283.574 697.395 285.835 694.748 287.791C692.101 289.746 689.516 290.478 686.992 289.987C684.46 289.502 682.138 287.829 680.026 284.97ZM692.598 275.684C691.177 273.759 689.741 272.58 688.291 272.145C686.841 271.711 685.39 272.03 683.936 273.104C681.022 275.256 680.995 278.269 683.856 282.141C686.722 286.022 689.604 286.892 692.503 284.751C693.956 283.677 694.689 282.377 694.702 280.85C694.721 279.33 694.02 277.608 692.598 275.684Z" fill="#454545"/>
<path d="M662.476 303.111C664.037 302.416 664.984 301.289 665.316 299.73C665.653 298.18 665.354 296.357 664.421 294.26C662.479 289.898 659.871 288.445 656.597 289.903C655.223 290.514 653.712 291.598 652.064 293.155L650.515 289.676C651.823 288.292 653.467 287.159 655.448 286.277C658.294 285.01 660.854 284.902 663.128 285.953C665.406 287.013 667.264 289.157 668.702 292.387C669.607 294.421 670.029 296.366 669.968 298.221C669.91 300.085 669.371 301.731 668.349 303.158C667.323 304.599 665.878 305.734 664.013 306.564C662.113 307.41 659.999 307.8 657.672 307.735L657.509 303.767C658.395 303.789 659.266 303.765 660.122 303.694C660.978 303.623 661.762 303.429 662.476 303.111Z" fill="#454545"/>
<path d="M626.154 296.351L628.742 301.01L636.376 299.372L636.825 294.062L641.608 293.035L638.73 315.646L633.302 316.811L621.371 297.378L626.154 296.351ZM630.601 304.506C632.974 308.721 634.314 311.105 634.623 311.658C634.922 312.213 635.146 312.655 635.296 312.982C635.349 311.692 635.603 308.477 636.058 303.335L630.601 304.506Z" fill="#454545"/>
<path d="M592.543 310.008C592.584 306.483 593.621 303.795 595.655 301.943C597.678 300.091 600.584 299.187 604.373 299.231L610.437 299.302L610.189 320.716L603.466 320.638C599.97 320.598 597.266 319.644 595.354 317.776C593.442 315.908 592.505 313.318 592.543 310.008ZM597.261 309.946C597.208 314.545 599.212 316.868 603.275 316.915L605.692 316.943L605.853 302.999L603.905 302.976C599.53 302.925 597.316 305.249 597.261 309.946Z" fill="#454545"/>
<path d="M559.522 304.591C560.358 301.146 561.854 298.705 564.012 297.269C566.169 295.833 568.842 295.502 572.031 296.276C575.219 297.049 577.443 298.569 578.702 300.834C579.962 303.099 580.171 305.964 579.331 309.427C578.49 312.891 576.995 315.327 574.844 316.735C572.682 318.15 570.002 318.469 566.804 317.693C563.605 316.917 561.385 315.403 560.143 313.152C558.89 310.899 558.684 308.045 559.522 304.591ZM574.711 308.276C575.275 305.951 575.259 304.093 574.662 302.702C574.065 301.311 572.888 300.403 571.133 299.977C567.612 299.123 565.284 301.035 564.148 305.713C563.011 310.402 564.193 313.171 567.695 314.02C569.45 314.446 570.918 314.174 572.098 313.205C573.276 312.244 574.147 310.602 574.711 308.276Z" fill="#454545"/>
<path d="M517.905 293.753C519.333 294.691 520.793 294.879 522.284 294.317C523.77 293.763 525.143 292.526 526.403 290.608C529.026 286.617 528.839 283.638 525.844 281.67C524.587 280.844 522.859 280.158 520.658 279.612L522.75 276.429C524.621 276.782 526.462 277.554 528.274 278.745C530.878 280.455 532.352 282.551 532.696 285.033C533.035 287.522 532.234 290.245 530.292 293.199C529.07 295.06 527.661 296.465 526.067 297.416C524.467 298.375 522.791 298.81 521.038 298.721C519.271 298.635 517.535 298.032 515.829 296.911C514.091 295.769 512.62 294.201 511.418 292.208L514.669 289.927C515.129 290.685 515.62 291.405 516.142 292.087C516.664 292.768 517.252 293.324 517.905 293.753Z" fill="#454545"/>
<path d="M503.971 259.652L501.464 264.354L506.985 269.875L511.687 267.369L515.147 270.828L494.597 280.689L490.671 276.763L500.511 256.192L503.971 259.652ZM499.537 267.814C497.286 272.095 496.012 274.516 495.715 275.075C495.411 275.627 495.163 276.055 494.97 276.359C496.081 275.703 498.919 274.17 503.484 271.76L499.537 267.814Z" fill="#454545"/>
<path d="M490.829 244.472L493.296 248.196L475.441 260.022L468.663 249.788L471.765 247.733L476.076 254.243L480.68 251.193L476.668 245.136L479.758 243.089L483.77 249.147L490.829 244.472Z" fill="#454545"/>
<path d="M475.096 216.05L479.901 227.41L460.176 235.753L455.372 224.393L458.799 222.943L461.834 230.121L466.165 228.289L463.34 221.611L466.767 220.161L469.592 226.84L474.678 224.688L471.642 217.511L475.096 216.05Z" fill="#454545"/>
<path d="M459.813 190.472L456.447 190.615L455.275 163.042L458.641 162.899L459.813 190.472Z" fill="#454545"/>
<path d="M464.453 112.748C467.795 113.931 470.07 115.669 471.278 117.961C472.487 120.254 472.544 122.946 471.449 126.04C470.354 129.133 468.616 131.19 466.234 132.212C463.853 133.234 460.982 133.15 457.622 131.96C454.261 130.771 451.991 129.035 450.81 126.752C449.623 124.457 449.578 121.759 450.676 118.656C451.775 115.554 453.507 113.499 455.872 112.493C458.242 111.477 461.102 111.562 464.453 112.748ZM459.238 127.482C461.493 128.281 463.343 128.454 464.788 128.002C466.232 127.55 467.256 126.472 467.859 124.769C469.068 121.353 467.403 118.842 462.864 117.236C458.317 115.626 455.442 116.52 454.239 119.917C453.636 121.62 453.757 123.108 454.602 124.381C455.437 125.65 456.982 126.684 459.238 127.482Z" fill="#454545"/>
<path d="M471.563 94.7396L472.345 93.5008C473.111 92.2868 473.474 91.2631 473.435 90.4296C473.395 89.5961 472.941 88.9057 472.074 88.3585C471.215 87.8164 470.416 87.728 469.678 88.0933C468.944 88.4503 468.187 89.2482 467.405 90.487L466.67 91.6514L471.563 94.7396ZM474.685 96.7097L481.634 101.096L479.211 104.936L461.1 93.5058L464.43 88.2286C465.984 85.7676 467.583 84.2307 469.229 83.6179C470.866 82.9998 472.597 83.2667 474.422 84.4186C475.487 85.091 476.252 85.9835 476.716 87.0963C477.172 88.2038 477.296 89.443 477.09 90.8136C482.881 90.6579 486.632 90.5424 488.342 90.4671L485.653 94.7285L475.975 94.6658L474.685 96.7097Z" fill="#454545"/>
<path d="M491.011 67.7082L496.953 61.6354L504.89 69.4008C504.248 70.6991 503.563 71.8461 502.835 72.8415C502.12 73.8368 501.319 74.7882 500.432 75.6956C498.171 78.0061 495.766 79.1096 493.217 79.0062C490.667 78.8889 488.122 77.5873 485.581 75.1013C483.11 72.6836 481.873 70.0936 481.871 67.3314C481.875 64.5621 483.103 61.9245 485.555 59.4186C487.092 57.8481 488.888 56.6407 490.944 55.7965L492.485 59.4156C490.834 59.9861 489.418 60.8751 488.236 62.0827C486.863 63.4857 486.235 65.0705 486.351 66.8371C486.467 68.6037 487.32 70.2656 488.912 71.8228C490.573 73.4482 492.175 74.3527 493.717 74.5361C495.259 74.7058 496.665 74.1415 497.935 72.8431C498.598 72.1661 499.2 71.4102 499.744 70.5756L496.55 67.451L493.713 70.3513L491.011 67.7082Z" fill="#454545"/>
<path d="M525.526 54.0264L521.429 50.6188L514.904 54.9062L516.405 60.0192L512.317 62.7058L506.825 40.5836L511.465 37.535L529.615 51.3397L525.526 54.0264ZM518.431 48.0311C514.695 44.959 512.583 43.2209 512.096 42.8168C511.616 42.4073 511.247 42.0771 510.989 41.8262C511.406 43.0478 512.332 46.1377 513.767 51.0958L518.431 48.0311Z" fill="#454545"/>
<path d="M556.568 38.899L551.15 40.8859L536.825 28.8824L536.701 28.9278C537.861 31.5504 538.65 33.4347 539.071 34.5807L542.54 44.0428L538.731 45.4397L531.358 25.3328L536.735 23.361L550.991 35.2183L551.087 35.183C549.991 32.6203 549.245 30.7981 548.848 29.7162L545.358 20.1991L549.196 18.7921L556.568 38.899Z" fill="#454545"/>
<path d="M569.53 35.1404L566.083 14.0037L570.565 13.2727L574.012 34.4094L569.53 35.1404Z" fill="#454545"/>
<path d="M597.746 14.1913C596.037 14.1715 594.706 14.8006 593.754 16.0788C592.802 17.3471 592.312 19.1287 592.286 21.4235C592.23 26.1985 593.994 28.6068 597.578 28.6483C599.082 28.6657 600.908 28.3109 603.055 27.5837L603.011 31.3921C601.244 32.1041 599.277 32.4475 597.11 32.4224C593.995 32.3864 591.623 31.4164 589.994 29.5127C588.366 27.5992 587.572 24.875 587.613 21.34C587.639 19.1136 588.067 17.1702 588.897 15.5098C589.727 13.8396 590.904 12.569 592.427 11.6979C593.961 10.8171 595.749 10.3886 597.789 10.4122C599.869 10.4363 601.953 10.9634 604.041 11.9935L602.534 15.6677C601.737 15.2776 600.935 14.9363 600.128 14.6437C599.321 14.3511 598.527 14.2003 597.746 14.1913Z" fill="#454545"/>
<path d="M651.284 31.0258C650.095 34.3447 648.237 36.5476 645.711 37.6344C643.194 38.7245 640.152 38.6308 636.585 37.3531L630.876 35.3081L638.097 15.1464L644.427 17.4136C647.719 18.5925 649.963 20.3768 651.161 22.7664C652.359 25.156 652.4 27.9091 651.284 31.0258ZM646.804 29.5456C648.355 25.2154 647.218 22.3653 643.393 20.9955L641.118 20.1804L636.415 33.309L638.25 33.966C642.368 35.4412 645.22 33.9678 646.804 29.5456Z" fill="#454545"/>
<path d="M659.297 46.3986L670.054 27.8799L673.98 30.1607L663.224 48.6794L659.297 46.3986Z" fill="#454545"/>
<path d="M688.453 58.855C687.226 60.3496 685.72 61.0843 683.934 61.0589C682.156 61.0398 680.308 60.2434 678.391 58.6698C676.624 57.2201 675.334 55.6055 674.521 53.826L677.197 50.5649C677.905 51.9801 678.561 53.1055 679.163 53.9412C679.774 54.7832 680.4 55.4674 681.041 55.994C681.811 56.626 682.521 56.962 683.17 57.0021C683.827 57.0485 684.394 56.781 684.871 56.1997C685.137 55.8751 685.282 55.5139 685.305 55.1161C685.335 54.7108 685.268 54.2455 685.106 53.7203C684.95 53.2013 684.544 52.2422 683.885 50.8429C683.264 49.5372 682.88 48.4579 682.734 47.6049C682.587 46.752 682.602 45.911 682.777 45.0819C682.952 44.2529 683.359 43.4496 683.997 42.672C685.199 41.2075 686.638 40.4621 688.314 40.4358C689.999 40.4157 691.716 41.1242 693.468 42.5615C694.328 43.2678 695.064 44.0419 695.674 44.8839C696.292 45.732 696.875 46.691 697.425 47.761L694.053 49.5606C693.467 48.4734 692.942 47.6196 692.479 46.9991C692.023 46.3849 691.515 45.8485 690.957 45.39C690.292 44.8448 689.656 44.5814 689.047 44.5997C688.438 44.6181 687.929 44.8763 687.521 45.3746C687.267 45.6841 687.115 46.0147 687.067 46.3664C687.024 46.7106 687.068 47.1191 687.198 47.5921C687.341 48.0636 687.769 49.0589 688.481 50.5778C689.421 52.5876 689.871 54.2016 689.832 55.4198C689.798 56.6304 689.339 57.7755 688.453 58.855Z" fill="#454545"/>
<path d="M705.289 85.0783L702.456 81.5482L709.664 75.7628L704.356 69.1482L697.147 74.9336L694.305 71.3921L711.007 57.9875L713.849 61.529L707.303 66.7826L712.612 73.3972L719.158 68.1436L721.991 71.6736L705.289 85.0783Z" fill="#454545"/>
<path d="M718.483 106.477L712.888 95.485L731.974 85.7705L737.569 96.7625L734.253 98.4503L730.718 91.5052L726.527 93.6381L729.816 100.1L726.5 101.788L723.211 95.3259L718.29 97.8309L721.825 104.776L718.483 106.477Z" fill="#454545"/>
<path d="M733.166 128.273C731.309 128.814 729.651 128.57 728.192 127.54C726.735 126.521 725.66 124.82 724.966 122.439C724.326 120.245 724.173 118.184 724.506 116.256L728.557 115.075C728.342 116.643 728.248 117.942 728.273 118.972C728.302 120.012 728.432 120.93 728.664 121.727C728.943 122.683 729.339 123.361 729.852 123.761C730.368 124.17 730.987 124.269 731.709 124.059C732.112 123.941 732.436 123.725 732.679 123.41C732.933 123.092 733.14 122.67 733.302 122.145C733.467 121.629 733.673 120.608 733.92 119.081C734.145 117.653 734.437 116.545 734.798 115.759C735.159 114.972 735.645 114.286 736.258 113.7C736.871 113.115 737.66 112.682 738.625 112.4C740.444 111.87 742.053 112.067 743.452 112.992C744.853 113.927 745.871 115.481 746.505 117.657C746.816 118.725 746.986 119.779 747.014 120.819C747.045 121.868 746.985 122.989 746.835 124.182L743.036 123.764C743.166 122.535 743.215 121.535 743.183 120.761C743.153 119.996 743.037 119.267 742.835 118.573C742.595 117.748 742.218 117.171 741.705 116.843C741.193 116.514 740.627 116.44 740.008 116.62C739.624 116.732 739.312 116.92 739.073 117.183C738.844 117.443 738.649 117.805 738.489 118.268C738.342 118.739 738.133 119.801 737.862 121.457C737.504 123.647 736.964 125.233 736.244 126.216C735.532 127.196 734.507 127.882 733.166 128.273Z" fill="#454545"/>
<circle cx="599" cy="166" r="115" fill="#EED1CE"/>
<path d="M648.571 165.853C646.323 159.274 642.743 152.936 639.281 146.807C638.212 144.916 637.15 143.037 636.139 141.165C634.162 137.535 632.479 133.773 630.989 129.669C630.939 129.531 630.88 129.398 630.812 129.273C629.205 124.915 627.856 120.471 626.335 115.174C626.315 115.108 626.295 115.042 626.272 114.978C626.261 114.932 626.249 114.892 626.241 114.862C625.757 113.207 625.173 111.604 624.503 110.072C623.943 108.811 623.397 107.715 622.858 106.748C621.624 104.48 620.195 102.398 618.625 100.577C618.247 100.134 617.836 99.6861 617.529 99.3877C617.279 99.1044 616.994 98.8142 616.625 98.4502C616.21 98.0664 615.797 97.6883 615.293 97.2542C614.838 96.8633 614.38 96.4771 613.932 96.1505C613.158 95.5689 612.387 95.0528 611.462 94.4665C610.844 94.1095 610.197 93.7818 609.492 93.4296C608.931 93.1639 608.373 92.9263 607.689 92.6373C607.531 92.5706 607.555 92.5706 607.388 92.5284C607.339 92.5097 607.254 92.4816 607.165 92.4512C606.522 92.2159 605.878 92.0135 605.17 91.8274L604.802 91.7431C604.163 91.584 603.526 91.4541 602.89 91.3254C602.794 91.3066 602.699 91.2902 602.603 91.282C602.602 91.2809 602.588 91.275 602.56 91.2703C602.444 91.2446 602.324 91.2306 602.207 91.2165L601.642 91.1592C601.147 91.1053 600.643 91.0538 600.137 91.0304H600.047C599.646 91.0035 599.245 91 598.846 91C582.745 91 575.636 110.853 570.445 125.346C568.687 130.26 567.022 134.903 565.429 137.566C555.241 154.544 543.864 176.942 546.345 199.646C548.106 215.86 558.545 229.37 574.944 236.689C575.838 237.103 576.766 237.487 577.641 237.82C578.748 238.262 579.856 238.644 580.877 238.962C581.805 239.286 582.766 239.573 583.645 239.804C584.442 240.04 585.24 240.237 585.927 240.37C586.566 240.529 587.172 240.659 587.727 240.769C588.517 240.95 589.334 241.079 590.211 241.211C591.107 241.37 592.005 241.5 592.988 241.606L593.258 241.633C593.525 241.663 593.793 241.69 594.06 241.699C594.956 241.813 595.823 241.876 596.626 241.904C597.689 241.97 598.784 242 599.851 242C613.556 242 626.014 237.321 634.934 228.82C637.119 226.726 639.112 224.479 640.83 222.18C641.146 221.769 641.434 221.359 641.717 220.923C641.879 220.718 642.034 220.504 642.192 220.285L642.444 219.94C642.479 219.89 642.514 219.844 642.548 219.792C652.651 204.622 654.903 184.46 648.572 165.852L648.571 165.853ZM555.158 198.704C552.982 178.586 563.565 157.898 573.031 142.124C575.074 138.715 576.796 133.912 578.791 128.342C583.332 115.666 588.985 99.8907 598.841 99.8907C608.959 99.8907 615.332 109.312 617.713 117.375L617.785 117.62C620.567 127.309 623.281 136.085 628.327 145.39C629.352 147.281 630.425 149.182 631.516 151.11C634.793 156.91 638.182 162.906 640.161 168.727C646.85 188.376 642.39 209.448 628.797 222.403C621.549 229.311 611.265 233.114 599.843 233.114C579.988 233.113 557.578 221.051 555.157 198.702L555.158 198.704Z" fill="#E5673B"/>
<path d="M630.545 189.959C630.545 172.594 616.417 158.465 599.051 158.465C581.685 158.465 567.557 172.593 567.557 189.959C567.557 207.324 581.685 221.45 599.051 221.45C616.415 221.45 630.545 207.323 630.545 189.959ZM599.054 215.171C585.15 215.171 573.841 203.861 573.841 189.959C573.841 176.056 585.15 164.743 599.054 164.743C612.957 164.743 624.267 176.053 624.267 189.959C624.267 203.861 612.956 215.171 599.054 215.171Z" fill="#E5673B"/>
</svg>
